<svg id="Calque_1" data-name="Calque 1" xmlns="http://www.w3.org/2000/svg" viewBox="0 0 26.86 23.97"><defs><style>.cls-1{fill:#222;}</style></defs><g id="cart"><path id="Tracé_36" data-name="Tracé 36" class="cls-1" d="M47.56,60a2,2,0,1,1-2-2A2,2,0,0,1,47.56,60Z" transform="translate(-36.57 -38)"/><path id="Tracé_37" data-name="Tracé 37" class="cls-1" d="M61.54,60a2,2,0,1,1-2-2A2,2,0,0,1,61.54,60Z" transform="translate(-36.57 -38)"/><path id="Tracé_38" data-name="Tracé 38" class="cls-1" d="M63.09,41.55A1.5,1.5,0,0,0,61.93,41h-19l-.38-2.17a1,1,0,0,0-1-.83h-4a1,1,0,1,0,0,2h3.16l2.85,16.15a1,1,0,0,0,1,.83h16a1,1,0,0,0,0-2H45.4l-.35-2H60.13a1.5,1.5,0,0,0,1.47-1.2l1.8-9a1.49,1.49,0,0,0-.31-1.24Z" transform="translate(-36.57 -38)"/></g></svg>