<svg id="Calque_1" data-name="Calque 1" xmlns="http://www.w3.org/2000/svg" viewBox="0 0 29.25 27"><path id="android-favorite-outline" d="M56.57,36.52A8.64,8.64,0,0,0,50,39.61a8.62,8.62,0,0,0-6.58-3.09,8,8,0,0,0-8,7.86v.23c0,5.59,5,10.08,12.5,17L50,63.52l2.12-1.92c7.54-6.91,12.5-11.4,12.5-17a8,8,0,0,0-7.81-8.09A.88.88,0,0,0,56.57,36.52ZM50.89,59.67l-.3.27-.6.55-.6-.55-.3-.27a89.61,89.61,0,0,1-8.63-8.58c-2-2.44-2.84-4.44-2.84-6.48a5.84,5.84,0,0,1,1.67-4.17,5.72,5.72,0,0,1,4.12-1.67,6.41,6.41,0,0,1,4.86,2.28L50,43.1l1.73-2.05a6.39,6.39,0,0,1,4.85-2.28,5.75,5.75,0,0,1,4.13,1.67,5.84,5.84,0,0,1,1.67,4.17c0,2-.88,4-2.84,6.48a90.76,90.76,0,0,1-8.63,8.58Z" transform="translate(-35.37 -36.51)"/></svg>