<svg id="Calque_1" data-name="Calque 1" xmlns="http://www.w3.org/2000/svg" viewBox="0 0 32.14 30"><g id="home"><path id="Tracé_1" data-name="Tracé 1" d="M50.4,40a.55.55,0,0,0-.74,0L37.49,51.63a.55.55,0,0,0-.16.38V63a2.11,2.11,0,0,0,2.11,2.12H45.8A1.07,1.07,0,0,0,46.86,64h0V55a.52.52,0,0,1,.52-.53h5.29a.53.53,0,0,1,.53.53h0v9a1.07,1.07,0,0,0,1.06,1.06h6.35A2.12,2.12,0,0,0,62.73,63h0V52a.55.55,0,0,0-.16-.38Z" transform="translate(-33.96 -35.09)"/><path id="Tracé_2" data-name="Tracé 2" d="M65.76,50l-5-5V37.34a1.1,1.1,0,0,0-1.07-1.12H56.46a1.1,1.1,0,0,0-1.07,1.12v2.25L51.51,35.7a2.11,2.11,0,0,0-3,0L34.3,50a1.19,1.19,0,0,0-.09,1.57,1,1,0,0,0,1.46.16l.09-.09,13.9-13.94a.52.52,0,0,1,.73,0h0L64.3,51.65a1,1,0,0,0,1.46,0l0-.05a1.18,1.18,0,0,0,0-1.61Z" transform="translate(-33.96 -35.09)"/></g></svg>