<svg id="Calque_1" data-name="Calque 1" xmlns="http://www.w3.org/2000/svg" viewBox="0 0 27 30"><g id="ios-journal"><path id="Tracé_10" data-name="Tracé 10" d="M38.5,35a1.94,1.94,0,0,0-2,1.88V63.11a1.93,1.93,0,0,0,2,1.88H62.4a1.06,1.06,0,0,0,1.11-1,1.07,1.07,0,0,0-1-1.12H39.93a1.13,1.13,0,0,1-1.15-.94,1.09,1.09,0,0,1,1-1.2H54.52V35Z" transform="translate(-36.52 -34.99)"/><path id="Tracé_11" data-name="Tracé 11" d="M62.39,60.48a1.09,1.09,0,0,0,1.13-1.06V36.86a1.93,1.93,0,0,0-2-1.87H57.89V60.48Z" transform="translate(-36.52 -34.99)"/></g></svg>