<svg id="Calque_1" data-name="Calque 1" xmlns="http://www.w3.org/2000/svg" viewBox="0 0 29.81 27.25"><defs><style>.cls-1,.cls-2{fill:none;stroke:#000;stroke-linecap:round;stroke-linejoin:round;}.cls-1{stroke-width:3.38px;}.cls-2{stroke-width:2.25px;}</style></defs><g id="list"><path id="Tracé_12" data-name="Tracé 12" class="cls-1" d="M43,38.62H63.25" transform="translate(-35.12 -36.37)"/><path id="Tracé_13" data-name="Tracé 13" class="cls-1" d="M43,50H63.25" transform="translate(-35.12 -36.37)"/><path id="Tracé_14" data-name="Tracé 14" class="cls-1" d="M43,61.37H63.25" transform="translate(-35.12 -36.37)"/><path id="Tracé_15" data-name="Tracé 15" class="cls-2" d="M38.5,38.62a1.13,1.13,0,1,1-1.13-1.13A1.13,1.13,0,0,1,38.5,38.62Z" transform="translate(-35.12 -36.37)"/><path id="Tracé_16" data-name="Tracé 16" class="cls-2" d="M38.5,50a1.13,1.13,0,1,1-2.25,0,1.13,1.13,0,0,1,2.25,0Z" transform="translate(-35.12 -36.37)"/><path id="Tracé_17" data-name="Tracé 17" class="cls-2" d="M38.5,61.37a1.13,1.13,0,1,1-1.13-1.13A1.13,1.13,0,0,1,38.5,61.37Z" transform="translate(-35.12 -36.37)"/></g></svg>