<svg id="Calque_1" data-name="Calque 1" xmlns="http://www.w3.org/2000/svg" viewBox="0 0 29 28.98"><defs><style>.cls-1{fill:#222;}</style></defs><g id="md-log-out"><path id="Tracé_19" data-name="Tracé 19" class="cls-1" d="M46.39,52.47H59.73l-3.07,3.14,2.1,2.1L65.52,51l-6.75-6.75-2.18,2.1,3.14,3.15H46.39Z" transform="translate(-36.52 -36.49)"/><path id="Tracé_20" data-name="Tracé 20" class="cls-1" d="M51,62.49a11.52,11.52,0,1,1,8.09-19.71v0l2.11-2.11a15.77,15.77,0,0,0-1.93-1.62,14.51,14.51,0,1,0,1.93,22.16l-2.1-2.1A11.39,11.39,0,0,1,51,62.49Z" transform="translate(-36.52 -36.49)"/><path id="Tracé_21" data-name="Tracé 21" class="cls-1" d="M64.39,51,64.33,51l.06-.06.06.06Z" transform="translate(-36.52 -36.49)"/></g></svg>