<svg id="Calque_1" data-name="Calque 1" xmlns="http://www.w3.org/2000/svg" viewBox="0 0 26.94 31"><defs><style>.cls-1{fill:#222;}</style></defs><g id="person"><path id="Tracé_3" data-name="Tracé 3" class="cls-1" d="M55.08,36.17a6.74,6.74,0,0,0-9.5-.62q-.31.29-.6.6a7.77,7.77,0,0,0-1.77,5.68c.28,4.3,3.35,7.8,6.82,7.8s6.53-3.5,6.83-7.79a7.78,7.78,0,0,0-1.78-5.67Z" transform="translate(-36.56 -33.88)"/><path id="Tracé_4" data-name="Tracé 4" class="cls-1" d="M61.42,64.88H38.64a2,2,0,0,1-1.57-.79,2.64,2.64,0,0,1-.47-2,12.13,12.13,0,0,1,4.94-8,14.83,14.83,0,0,1,17,0,12.08,12.08,0,0,1,4.93,8,2.6,2.6,0,0,1-.46,2A2,2,0,0,1,61.42,64.88Z" transform="translate(-36.56 -33.88)"/></g></svg>