<svg id="Calque_1" data-name="Calque 1" xmlns="http://www.w3.org/2000/svg" viewBox="0 0 64.66 82.49"><defs><style>.cls-1{fill:#222;}</style></defs><path id="Tracé_22-2" data-name="Tracé 22-2" class="cls-1" d="M37.84,31.08c3.79-.71,13.58-2.12,22,.16a2,2,0,0,1,1.51,1.95l0,1c-.17,5.88.57,12.56-4.51,17a19.37,19.37,0,0,0-2.42,2.37l-.07,6.37a4.92,4.92,0,0,0,.88,3,4.75,4.75,0,0,0,4.23,1.9C63.88,64.61,65.5,60,65.5,60s4.86,1.06,6.88-5.4c1.88-6-2.84-8.36-2.84-8.36s6.89-3,6.89-9.85a12.15,12.15,0,0,0-5.81-10.12s4-3.37,1.76-10.66c-1.67-5.3-9.13-7-13.07-7.47a19.48,19.48,0,0,0-5.06,0,26.29,26.29,0,0,0-8.86,2.74A11.47,11.47,0,0,0,33,9.56C26.1,13.07,26.1,23.32,29.2,25.48c0,0-7.28,4.59-7.15,11.2S29.61,46.8,29.61,46.8,27,49.09,27.45,51.52a4.38,4.38,0,0,0,2.7,3.24s-3.24,7.69,2,10c3.51,1.53,6.3,2.1,8.89.75a7.24,7.24,0,0,0,3.75-6.57l-.09-5.51a33.74,33.74,0,0,1-5.56-5.32A14.11,14.11,0,0,1,36,38.8L36.18,33A2,2,0,0,1,37.84,31.08Z" transform="translate(-16.1 -8)"/><path class="cls-1" d="M29.78,67.55c.45.18.33.56.34.85.05,4.82.36,9.64-.29,14.44a15.73,15.73,0,0,1-.62,2.59,1.83,1.83,0,0,1-1.36,1.48c-.88.15-1.4-.45-1.86-1.06a14.37,14.37,0,0,1-1.68-3.08c-1.73-4-2.88-8.22-4.41-12.3a2.58,2.58,0,0,0-.74-1.35,45,45,0,0,0-.94,7c-.3,4.34-.55,8.68-.82,13a3,3,0,0,1,0,.42c-.05.42,0,.94-.64.89s-.57-.54-.61-1a5.33,5.33,0,0,1,0-.56,157.39,157.39,0,0,1,1.68-19.28,12,12,0,0,1,.44-1.77c.14-.46.38-.9,1-.91a1,1,0,0,1,.94.76c.44,1.08.86,2.17,1.23,3.28,1.28,3.83,2.32,7.73,3.91,11.44.36.81.75,1.62,1.18,2.4.26.48.58,1.08,1.23,1s.77-.74.92-1.28a24.11,24.11,0,0,0,.81-6c.1-3.23.05-6.47.09-9.7C29.49,68.49,29.28,67.94,29.78,67.55Z" transform="translate(-16.1 -8)"/><path class="cls-1" d="M61.42,82.55c-.16,1.3-.05,2.62-.09,3.93,0,.41,0,1-.48,1-.67,0-.61-.63-.62-1-.07-2.1-.12-4.21-.09-6.31,0-1-.37-1.42-1.42-1.39-1.89.07-3.78.08-5.67,0-1,0-1.36.34-1.32,1.31.09,2.11-.06,4.22.16,6.32a17.2,17.2,0,0,1,0,2.38c0,.61.21,1.6-.64,1.61s-.57-1-.58-1.57c0-2.81,0-5.62,0-8.43,0-.91,0-1.74-1.28-1.61-.34,0-.71-.07-.72-.5s.38-.67.76-.66c1.25,0,1.26-.79,1.28-1.7.06-2.81.17-5.61.27-8.42,0-.07.09-.15.19-.33a2.09,2.09,0,0,1,.4,1.7c0,2.48.09,5,.07,7.44,0,1,.28,1.48,1.36,1.46,1.94,0,3.88,0,5.82,0,1,0,1.25-.38,1.23-1.26,0-1.87,0-3.74,0-5.61,0-.85,0-1.69.06-2.53,0-.52-.12-1.37.59-1.35s.54.87.55,1.39c0,1.87,0,3.74.07,5.61" transform="translate(-16.1 -8)"/><path class="cls-1" d="M35,80.08a2.6,2.6,0,0,0-2.82,2.24c-.13.58-.28,1.29.48,1.58s1.07-.27,1.34-.76c.42-.79.75-1.61,1.12-2.42.12-.25.21-.59.55-.55s.37.37.4.65c.1.74.17,1.49.3,2.22.2,1.06.82,1.17,1.64.6a2.92,2.92,0,0,0,1.43-2.57c0-3.69.17-7.38.47-11.06a1.29,1.29,0,0,1,0-.28c.14-.56,0-1.47.78-1.43s.49.89.51,1.41a110.19,110.19,0,0,1-.72,11.05,27.36,27.36,0,0,0,.34,5.72c0,.44.09,1,.69,1.11a1.33,1.33,0,0,0,1.32-.66,10.2,10.2,0,0,0,2.44-5.87c0-.33,0-.65.06-1s.12-.72.53-.71.46.43.44.75c0,.69-.18,1.39-.22,2.09s-.13,1.43.61,1.71,1.06-.43,1.47-.86.36-.88.9-1c0,2-1.54,3.21-3.26,2.49-.69-.29-.72.18-.89.51a9.07,9.07,0,0,1-1.89,2.78c-1.33,1.19-2.39.9-3-.78a13.46,13.46,0,0,1-.49-3.62c-2.65,2.12-3.21,2.08-4.34-.31a13.05,13.05,0,0,1-1,1.18,1.78,1.78,0,0,1-1.79.61,1.82,1.82,0,0,1-1.25-1.56,3.6,3.6,0,0,1,2.32-3.76C34,79.46,34.59,79.3,35,80.08Z" transform="translate(-16.1 -8)"/><path class="cls-1" d="M78.5,84.86c1.07-.91,1.1-2.28,2.26-2.87a6.3,6.3,0,0,1-1.92,3.82c-.78.66-1.2-.16-1.3-.82a15.13,15.13,0,0,1,0-3.92c.07-.66.13-1.31.14-2,0-.35.16-.86-.31-1s-.57.39-.71.73c-.54,1.25-1.06,2.5-1.59,3.75a4.27,4.27,0,0,1-1.22,1.71c-.84.67-1.73.92-2.36-.24-.35-.64-.56-.52-1-.14-1.9,1.53-2.41,1.4-3.6-.8-.44.47-.84,1-1.32,1.41a1.45,1.45,0,0,1-1.84.15c-1-.62-1.16-2.16-.38-3.55s1.88-1.91,3.29-1.15a2.7,2.7,0,0,0-2.8,2.27c-.18.64-.24,1.27.46,1.58s1.09-.23,1.36-.71c.43-.77.74-1.61,1.12-2.41.11-.24.21-.57.59-.48s.3.33.33.56c.1.64.16,1.3.26,1.94.21,1.34.84,1.58,1.93.73a2.72,2.72,0,0,0,1.32-2.61,3.89,3.89,0,0,1,.09-1.12c.06-.28.21-.56.55-.53s.41.35.41.63c0,1-.1,2-.1,3,0,.41,0,.92.43,1.1a1,1,0,0,0,1.21-.53A11.77,11.77,0,0,0,76,77a47.55,47.55,0,0,1,1-5.81c.06-.35.21-.81.69-.75s.5.59.49,1a18.89,18.89,0,0,1-.55,4c-.13.59-.32,1.15.5,1.52s.62,1.08.62,1.74C78.75,80.7,78.21,82.68,78.5,84.86Z" transform="translate(-16.1 -8)"/><circle class="cls-1" cx="30.13" cy="69.88" r="0.68"/><circle class="cls-1" cx="56" cy="69.88" r="0.68"/><path d="M61,76.11c0,.91,0,1.74,1.28,1.6.34,0,.71.08.72.5s-.37.67-.76.67c-1.24,0-1.26.78-1.28,1.7" transform="translate(-16.1 -8)"/></svg>